<?xml version="1.0" encoding="utf-8"?>
<!-- Generator: Adobe Illustrator 24.1.3, SVG Export Plug-In . SVG Version: 6.00 Build 0)  -->
<svg version="1.1" id="レイヤー_1" xmlns="http://www.w3.org/2000/svg" xmlns:xlink="http://www.w3.org/1999/xlink" x="0px"
	 y="0px" viewBox="0 0 62.4 62.4" style="enable-background:new 0 0 62.4 62.4;" xml:space="preserve">
<style type="text/css">
	.st0{fill:#3ECACF;}
</style>
<path class="st0" d="M31.5,61.3c-0.5,0-0.9-0.1-1.3-0.4L6,47c-0.4-0.2-0.8-0.6-1-1c-0.2-0.4-0.4-0.9-0.4-1.3V16.8
	c0-0.5,0.1-0.9,0.4-1.3c0.2-0.4,0.6-0.7,1-1L30.1,0.5c0.4-0.2,0.9-0.4,1.3-0.4c0.5,0,0.9,0.1,1.3,0.4l24.1,13.9c0.4,0.2,0.8,0.6,1,1
	c0.2,0.4,0.4,0.9,0.4,1.3v27.9c0,0.5-0.1,0.9-0.4,1.3c-0.2,0.4-0.6,0.7-1,1L32.8,61C32.4,61.2,31.9,61.3,31.5,61.3z M10,43.2
	l21.5,12.3l21.5-12.3V18.4L31.5,6L10,18.4V43.2z"/>
<path class="st0" d="M31.5,33.4c-0.5,0-0.9-0.1-1.3-0.4L6,19.2c-0.6-0.4-1-1-1.2-1.6c-0.2-0.7-0.1-1.4,0.3-2c0.3-0.6,0.9-1,1.6-1.2
	c0.7-0.2,1.4-0.1,2,0.2l24.2,13.9c0.5,0.3,0.9,0.8,1.1,1.3s0.3,1.1,0.1,1.7c-0.2,0.6-0.5,1.1-1,1.4C32.6,33.2,32,33.4,31.5,33.4
	L31.5,33.4z"/>
<path class="st0" d="M31.5,33.4c-0.6,0-1.2-0.2-1.6-0.6c-0.5-0.4-0.8-0.9-1-1.4c-0.2-0.6-0.1-1.2,0.1-1.7c0.2-0.5,0.6-1,1.1-1.3
	l24.1-14c0.3-0.2,0.6-0.3,1-0.3c0.4,0,0.7,0,1.1,0.1s0.7,0.3,0.9,0.5c0.3,0.2,0.5,0.5,0.7,0.8c0.2,0.3,0.3,0.6,0.3,1
	c0,0.4,0,0.7-0.1,1.1c-0.1,0.3-0.3,0.7-0.5,0.9c-0.2,0.3-0.5,0.5-0.8,0.7L32.8,33.1C32.4,33.3,31.9,33.4,31.5,33.4z"/>
<path class="st0" d="M31.5,61.3c-0.7,0-1.4-0.3-1.9-0.8c-0.5-0.5-0.8-1.2-0.8-1.9V30.8c0-0.7,0.3-1.4,0.8-1.9
	c0.5-0.5,1.2-0.8,1.9-0.8c0.7,0,1.4,0.3,1.9,0.8c0.5,0.5,0.8,1.2,0.8,1.9v27.9c0,0.7-0.3,1.4-0.8,1.9C32.9,61,32.2,61.3,31.5,61.3
	L31.5,61.3z"/>
<path class="st0" d="M31.7,44.7c-0.6,0-1.1-0.2-1.6-0.6c-0.5-0.4-0.8-0.9-0.9-1.4C29,42.2,29,41.6,29.2,41c0.2-0.5,0.6-1,1.1-1.3
	l23.9-13.4c0.6-0.3,1.4-0.4,2-0.2c0.7,0.2,1.3,0.7,1.6,1.3c0.3,0.6,0.4,1.4,0.2,2c-0.2,0.7-0.7,1.3-1.3,1.6L33,44.4
	C32.6,44.6,32.1,44.7,31.7,44.7L31.7,44.7z"/>
</svg>
